# xmcd
#
# Track frame offsets:
#	150
#	15200
#	37895
#	51777
#	70100
#	93647
#	114045
#	131855
#	148392
#	166992
#	186087
#	201862
#
# Disc length: 2992 seconds
#
# Revision: 1
# Processed by: cddbd v1.4PL0 Copyright (c) Steve Scherf et al.
# Submitted via: audiograbber 1.81.03
#
DISCID=a10bae0c
DTITLE=Mark Cook - An Evening With The Blues
DYEAR=2000
DGENRE=Blues
TTITLE0=All Your Lovin'
TTITLE1=Nasty Old Feeling
TTITLE2=Bad Reputation
TTITLE3=Let It Go
TTITLE4=We'll Search For Tomorrow
TTITLE5=Faded Memory
TTITLE6=It's Too Late
TTITLE7=I'm Walkin'
TTITLE8=No Concern
TTITLE9=Don't Come Knockin'
TTITLE10=It's Your Sweet Love
TTITLE11=Don't Let Me Hold You Back
EXTD=
EXTT0=
EXTT1=
EXTT2=
EXTT3=
EXTT4=
EXTT5=
EXTT6=
EXTT7=
EXTT8=
EXTT9=
EXTT10=
EXTT11=
PLAYORDER=
